<svg width="24" height="24" viewBox="0 0 24 24" fill="none" xmlns="http://www.w3.org/2000/svg">
<path d="M12.4282 5.63275C9.14348 5.63275 6.49255 8.28374 6.49255 11.5685C6.49255 14.8533 9.14348 17.5043 12.4282 17.5043C15.7129 17.5043 18.3639 14.8533 18.3639 11.5685C18.3639 8.28374 15.7129 5.63275 12.4282 5.63275ZM12.4282 15.4263C10.304 15.4263 8.57046 13.6928 8.57046 11.5685C8.57046 9.44427 10.304 7.71071 12.4282 7.71071C14.5524 7.71071 16.286 9.44427 16.286 11.5685C16.286 13.6928 14.5524 15.4263 12.4282 15.4263ZM18.607 4.00628C17.8401 4.00628 17.2207 4.62561 17.2207 5.39255C17.2207 6.15948 17.8401 6.77881 18.607 6.77881C19.3739 6.77881 19.9932 6.16237 19.9932 5.39255C19.9934 5.21043 19.9577 5.03007 19.8882 4.86177C19.8186 4.69348 19.7165 4.54057 19.5877 4.4118C19.4589 4.28302 19.306 4.18092 19.1377 4.11134C18.9694 4.04175 18.7891 4.00605 18.607 4.00628V4.00628ZM23.9986 11.5685C23.9986 9.97099 24.013 8.38793 23.9233 6.79328C23.8336 4.94107 23.4111 3.29723 22.0567 1.94279C20.6994 0.585466 19.0584 0.165824 17.2063 0.0761071C15.6088 -0.0136097 14.0257 0.000860829 12.4311 0.000860829C10.8336 0.000860829 9.25056 -0.0136097 7.65595 0.0761071C5.80377 0.165824 4.15996 0.58836 2.80555 1.94279C1.44825 3.30012 1.02861 4.94107 0.938899 6.79328C0.849184 8.39082 0.863654 9.97389 0.863654 11.5685C0.863654 13.1632 0.849184 14.7491 0.938899 16.3438C1.02861 18.196 1.45114 19.8398 2.80555 21.1943C4.16285 22.5516 5.80377 22.9712 7.65595 23.0609C9.25346 23.1507 10.8365 23.1362 12.4311 23.1362C14.0286 23.1362 15.6116 23.1507 17.2063 23.0609C19.0584 22.9712 20.7023 22.5487 22.0567 21.1943C23.414 19.8369 23.8336 18.196 23.9233 16.3438C24.0159 14.7491 23.9986 13.1661 23.9986 11.5685V11.5685ZM21.4518 18.3928C21.2405 18.9195 20.9859 19.3131 20.5778 19.7183C20.1698 20.1263 19.7791 20.381 19.2523 20.5923C17.7301 21.1972 14.1154 21.0611 12.4282 21.0611C10.741 21.0611 7.12345 21.1972 5.60119 20.5952C5.07447 20.3839 4.68088 20.1292 4.27572 19.7212C3.86766 19.3131 3.61299 18.9224 3.40172 18.3957C2.79976 16.8705 2.93578 13.2558 2.93578 11.5685C2.93578 9.88128 2.79976 6.26367 3.40172 4.74138C3.61299 4.21465 3.86766 3.82106 4.27572 3.41588C4.68378 3.01071 5.07447 2.75314 5.60119 2.54187C7.12345 1.9399 10.741 2.07592 12.4282 2.07592C14.1154 2.07592 17.733 1.9399 19.2552 2.54187C19.782 2.75314 20.1755 3.00782 20.5807 3.41588C20.9888 3.82395 21.2434 4.21465 21.4547 4.74138C22.0567 6.26367 21.9206 9.88128 21.9206 11.5685C21.9206 13.2558 22.0567 16.8705 21.4518 18.3928Z" fill="black"/>
</svg>
