<svg width="24" height="24" viewBox="0 0 24 24" fill="none" xmlns="http://www.w3.org/2000/svg">
<path fill-rule="evenodd" clip-rule="evenodd" d="M3.22277 3.02929C3.65475 2.5973 4.24065 2.35462 4.85156 2.35462H18.6724C19.2833 2.35462 19.8692 2.5973 20.3012 3.02929C20.7332 3.46127 20.9758 4.04717 20.9758 4.65808V18.4789C20.9758 19.0898 20.7332 19.6757 20.3012 20.1077C19.8692 20.5397 19.2833 20.7824 18.6724 20.7824H4.85156C4.24065 20.7824 3.65475 20.5397 3.22277 20.1077C2.79078 19.6757 2.5481 19.0898 2.5481 18.4789V4.65808C2.5481 4.04717 2.79078 3.46127 3.22277 3.02929ZM18.6724 0.0511475H4.85156C3.62973 0.0511475 2.45794 0.53652 1.59397 1.40049C0.730001 2.26446 0.244629 3.43625 0.244629 4.65808V18.4789C0.244629 19.7007 0.730001 20.8725 1.59397 21.7365C2.45794 22.6005 3.62973 23.0858 4.85156 23.0858H18.6724C19.8942 23.0858 21.066 22.6005 21.93 21.7365C22.7939 20.8725 23.2793 19.7007 23.2793 18.4789V4.65808C23.2793 3.43625 22.7939 2.26446 21.93 1.40049C21.066 0.53652 19.8942 0.0511475 18.6724 0.0511475ZM17.5206 17.1278V12.8698C17.5206 10.5894 16.3021 9.52746 14.6781 9.52746C13.3663 9.52746 12.7812 10.2484 12.453 10.7552V10.7782H12.4369L12.453 10.7541V9.70253H9.98368C10.0171 10.3993 9.98368 17.1278 9.98368 17.1278H12.453V12.9804C12.453 12.7592 12.4703 12.5381 12.5348 12.3792C12.7133 11.9346 13.1198 11.4762 13.8017 11.4762C14.6954 11.4762 15.0525 12.1569 15.0525 13.1543V17.1278H17.5206ZM6.00328 7.40482C6.00328 6.67692 6.55612 6.12178 7.40034 6.12178C8.24571 6.12178 8.76514 6.67692 8.78127 7.40482C8.78127 8.11774 8.24571 8.689 7.38421 8.689H7.36809C6.53999 8.689 6.00328 8.11889 6.00328 7.40482ZM8.61887 17.1278H6.14955V9.70253H8.61887V17.1278Z" fill="black"/>
</svg>
